# xmcd
#
# Track frame offsets: 
#        150
#        8924
#        33344
#        52665
#        87036
#        112419
#        141283
#        161516
#        183350
#        253116
#        272586
#        306637
#        313469
#
# Disc length: 4548 seconds
#
# Revision: 0
# Processed by: cddbd v1.5.2PL0 Copyright (c) Steve Scherf et al.
# Submitted via: ExactAudioCopy v0.95b3
#
DISCID=b611c20d
DTITLE=The Rolling Stones  - Live Tour, Inglewood CA - Disc 1
DYEAR=1900
DGENRE=
TTITLE0=Fanfare For The Common Man
TTITLE1=Honky Tonk Women
TTITLE2=All Down The Line
TTITLE3=If You Can't Rock Me \\ Get Off My Cloud
TTITLE4=Starfucker
TTITLE5=Gimme Shelter
TTITLE6=Ain't To Proud To Beg
TTITLE7=You Gotta Move
TTITLE8=You Can't Always Get What You
TTITLE9=Happy
TTITLE10=Tumbling Dice
TTITLE11=Band Introductons
TTITLE12=It's Only Rock'n Roll
EXTD=
EXTT0=
EXTT1=
EXTT2=
EXTT3=
EXTT4=
EXTT5=
EXTT6=
EXTT7=
EXTT8=
EXTT9=
EXTT10=
EXTT11=
EXTT12=
PLAYORDER=
